<svg xmlns="http://www.w3.org/2000/svg" viewBox="0 0 24 24" fill="none">
  <path d="M4.5 6.5h15a1.5 1.5 0 0 1 1.5 1.5v2.2a2.3 2.3 0 0 0 0 4.6v2.2a1.5 1.5 0 0 1-1.5 1.5h-15A1.5 1.5 0 0 1 3 17v-2.2a2.3 2.3 0 0 0 0-4.6V8a1.5 1.5 0 0 1 1.5-1.5Z" fill="#FDEEE9" stroke="#D63D1F" stroke-width="1.4" stroke-linejoin="round"/>
  <path d="M9 8.5 15 15.5" stroke="#D63D1F" stroke-width="1.4" stroke-linecap="round"/>
  <path d="M15 8.5 9 15.5" stroke="#D63D1F" stroke-width="1.4" stroke-linecap="round"/>
  <path d="M7.25 9.75h1.5v1.5h-1.5zM15.25 12.75h1.5v1.5h-1.5z" fill="#D63D1F"/>
</svg>
