<svg xmlns="http://www.w3.org/2000/svg" viewBox="0 0 512 512">
  <defs>
    <radialGradient id="bg" cx="50%" cy="45%" r="60%">
      <stop offset="0%" stop-color="#ffddc5" />
      <stop offset="65%" stop-color="#f6b27c" />
      <stop offset="100%" stop-color="#de7a42" />
    </radialGradient>
    <linearGradient id="glow" x1="0%" y1="0%" x2="100%" y2="100%">
      <stop offset="0%" stop-color="#ffddb3" stop-opacity="0.75" />
      <stop offset="100%" stop-color="#ff8c4c" stop-opacity="0.1" />
    </linearGradient>
    <linearGradient id="char" x1="0%" y1="0%" x2="0%" y2="100%">
      <stop offset="0%" stop-color="#3a1c10" />
      <stop offset="100%" stop-color="#150802" />
    </linearGradient>
    <linearGradient id="tikka" x1="0%" y1="0%" x2="100%" y2="100%">
      <stop offset="0%" stop-color="#ffab4c" />
      <stop offset="50%" stop-color="#f86b38" />
      <stop offset="100%" stop-color="#c0351e" />
    </linearGradient>
  </defs>
  <rect width="512" height="512" fill="url(#bg)" />
  <ellipse cx="256" cy="260" rx="210" ry="170" fill="#fef6ee" opacity="0.85" />
  <ellipse cx="256" cy="270" rx="190" ry="150" fill="#fff9f2" />
  <ellipse cx="256" cy="276" rx="150" ry="110" fill="#261108" opacity="0.08" />

  <g opacity="0.5">
    <ellipse cx="160" cy="320" rx="52" ry="18" fill="#000" opacity="0.25" />
    <ellipse cx="256" cy="350" rx="70" ry="22" fill="#000" opacity="0.2" />
    <ellipse cx="352" cy="320" rx="52" ry="18" fill="#000" opacity="0.25" />
  </g>

  <g>
    <path d="M150 220c14-26 60-44 105-50 41-5 96 2 119 17 24 15 24 40 3 58-20 18-60 31-98 35-40 4-92-3-116-18s-27-36-13-42z" fill="url(#tikka)" />
    <path d="M210 166c-4 10-4 23 3 32 6 8 18 11 29 9 10-2 20-9 26-21 5-9 7-21 1-28-7-9-25-11-36-6-9 4-19 9-23 14z" fill="#ffe3b3" opacity="0.6" />
    <path d="M330 188c-6 6-10 16-8 25 3 11 14 18 26 18 12 0 25-8 32-19 6-9 7-21 1-29-6-7-19-9-29-4-8 4-17 6-22 9z" fill="#ffe7c2" opacity="0.55" />
    <path d="M188 242c9 18 21 34 39 42 20 9 47 8 66-2 19-10 31-29 41-47" fill="none" stroke="#3e1306" stroke-width="10" stroke-linecap="round" stroke-linejoin="round" opacity="0.3" />
    <path d="M168 232c-6-2-16 2-20 12-4 10 0 22 9 29 9 8 24 13 39 14" fill="#fce1c8" opacity="0.6" />
    <path d="M340 242c11 1 22-2 30-8 8-6 13-16 11-24" fill="#fcd3a8" opacity="0.55" />
  </g>

  <g>
    <circle cx="128" cy="204" r="16" fill="url(#char)" opacity="0.65" />
    <circle cx="386" cy="214" r="14" fill="url(#char)" opacity="0.6" />
    <circle cx="318" cy="150" r="18" fill="url(#char)" opacity="0.45" />
  </g>

  <ellipse cx="256" cy="420" rx="160" ry="35" fill="url(#glow)" opacity="0.4" />
</svg>
