<svg xmlns="http://www.w3.org/2000/svg" viewBox="0 0 512 512">
  <defs>
    <radialGradient id="bg" cx="50%" cy="38%" r="68%">
      <stop offset="0%" stop-color="#ffe7f5" />
      <stop offset="55%" stop-color="#f9b4d5" />
      <stop offset="100%" stop-color="#d4568d" />
    </radialGradient>
    <linearGradient id="plate" x1="0%" y1="0%" x2="0%" y2="100%">
      <stop offset="0%" stop-color="#ffffff" />
      <stop offset="100%" stop-color="#f3e7f0" />
    </linearGradient>
    <radialGradient id="tart" cx="50%" cy="50%" r="60%">
      <stop offset="0%" stop-color="#fff1f7" />
      <stop offset="45%" stop-color="#f6a6c7" />
      <stop offset="100%" stop-color="#b83d6c" />
    </radialGradient>
    <linearGradient id="filling" x1="0%" y1="0%" x2="100%" y2="100%">
      <stop offset="0%" stop-color="#ffe4ef" stop-opacity="0.85" />
      <stop offset="100%" stop-color="#ff9bc4" stop-opacity="0" />
    </linearGradient>
  </defs>
  <rect width="512" height="512" fill="url(#bg)" />
  <ellipse cx="256" cy="258" rx="208" ry="164" fill="url(#plate)" />
  <ellipse cx="256" cy="268" rx="182" ry="136" fill="#fff7fb" />
  <ellipse cx="256" cy="276" rx="150" ry="108" fill="url(#tart)" />

  <g opacity="0.6" fill="#892553">
    <ellipse cx="198" cy="234" rx="38" ry="26" />
    <ellipse cx="260" cy="224" rx="46" ry="30" />
    <ellipse cx="318" cy="242" rx="38" ry="26" />
    <ellipse cx="288" cy="288" rx="34" ry="22" />
    <ellipse cx="220" cy="296" rx="30" ry="20" />
  </g>

  <g opacity="0.68" fill="#ffd8ec">
    <ellipse cx="204" cy="230" rx="24" ry="16" />
    <ellipse cx="260" cy="220" rx="28" ry="18" />
    <ellipse cx="310" cy="236" rx="24" ry="16" />
    <ellipse cx="278" cy="286" rx="24" ry="16" />
    <ellipse cx="216" cy="292" rx="20" ry="14" />
  </g>

  <ellipse cx="256" cy="274" rx="118" ry="84" fill="url(#filling)" />
  <g opacity="0.7" fill="#ffe8f4">
    <circle cx="232" cy="208" r="10" />
    <circle cx="292" cy="208" r="9" />
    <circle cx="262" cy="250" r="8" />
  </g>

  <ellipse cx="256" cy="402" rx="148" ry="30" fill="#d66994" opacity="0.3" />
</svg>
