<svg xmlns="http://www.w3.org/2000/svg" viewBox="0 0 512 512">
  <defs>
    <radialGradient id="bg" cx="52%" cy="35%" r="68%">
      <stop offset="0%" stop-color="#ffe1e1" />
      <stop offset="55%" stop-color="#e9968b" />
      <stop offset="100%" stop-color="#922c30" />
    </radialGradient>
    <linearGradient id="plate" x1="0%" y1="0%" x2="0%" y2="100%">
      <stop offset="0%" stop-color="#fff6f6" />
      <stop offset="100%" stop-color="#f2e2e2" />
    </linearGradient>
    <radialGradient id="gravy" cx="48%" cy="48%" r="60%">
      <stop offset="0%" stop-color="#ffc9b9" />
      <stop offset="44%" stop-color="#d75b4f" />
      <stop offset="100%" stop-color="#671316" />
    </radialGradient>
    <radialGradient id="oil" cx="52%" cy="42%" r="40%">
      <stop offset="0%" stop-color="#ffd3a2" stop-opacity="0.85" />
      <stop offset="100%" stop-color="#ff7f4f" stop-opacity="0" />
    </radialGradient>
  </defs>
  <rect width="512" height="512" fill="url(#bg)" />
  <ellipse cx="256" cy="258" rx="212" ry="168" fill="url(#plate)" />
  <ellipse cx="256" cy="268" rx="186" ry="138" fill="#fff8f8" />
  <ellipse cx="256" cy="276" rx="150" ry="110" fill="url(#gravy)" />

  <g opacity="0.55" fill="#5d1418">
    <ellipse cx="190" cy="236" rx="36" ry="26" />
    <ellipse cx="248" cy="220" rx="46" ry="30" />
    <ellipse cx="320" cy="242" rx="40" ry="28" />
    <ellipse cx="284" cy="292" rx="36" ry="24" />
    <ellipse cx="214" cy="304" rx="32" ry="22" />
  </g>

  <g opacity="0.65" fill="#f2b1a5">
    <ellipse cx="182" cy="228" rx="24" ry="16" />
    <ellipse cx="240" cy="214" rx="28" ry="18" />
    <ellipse cx="312" cy="234" rx="24" ry="16" />
    <ellipse cx="272" cy="284" rx="24" ry="16" />
    <ellipse cx="206" cy="296" rx="22" ry="14" />
  </g>

  <path d="M164 204c22-20 78-38 128-38 52 0 112 18 130 40 18 22 0 46-32 64-36 20-86 28-130 24-46-4-90-20-112-38-20-18-18-38 16-52z" fill="none" stroke="#ffe4d9" stroke-width="12" opacity="0.55" />

  <ellipse cx="256" cy="272" rx="116" ry="84" fill="url(#oil)" />
  <g opacity="0.35" fill="#ffd8ba">
    <circle cx="200" cy="210" r="10" />
    <circle cx="230" cy="250" r="8" />
    <circle cx="310" cy="264" r="12" />
    <circle cx="328" cy="214" r="9" />
  </g>

  <ellipse cx="256" cy="404" rx="156" ry="34" fill="#af4d4f" opacity="0.28" />
</svg>
