<svg xmlns="http://www.w3.org/2000/svg" viewBox="0 0 512 512">
  <defs>
    <radialGradient id="bg" cx="52%" cy="40%" r="68%">
      <stop offset="0%" stop-color="#fff2e8" />
      <stop offset="60%" stop-color="#ffd0c5" />
      <stop offset="100%" stop-color="#f0707b" />
    </radialGradient>
    <linearGradient id="plate" x1="0%" y1="0%" x2="0%" y2="100%">
      <stop offset="0%" stop-color="#ffffff" />
      <stop offset="100%" stop-color="#f5edef" />
    </linearGradient>
    <linearGradient id="kulfi" x1="0%" y1="0%" x2="0%" y2="100%">
      <stop offset="0%" stop-color="#ffe7c9" />
      <stop offset="50%" stop-color="#ffb665" />
      <stop offset="100%" stop-color="#f0733d" />
    </linearGradient>
    <radialGradient id="falooda" cx="50%" cy="45%" r="45%">
      <stop offset="0%" stop-color="#ffe0f0" />
      <stop offset="100%" stop-color="#f6a8cc" />
    </radialGradient>
  </defs>
  <rect width="512" height="512" fill="url(#bg)" />
  <ellipse cx="256" cy="262" rx="210" ry="168" fill="url(#plate)" />
  <ellipse cx="256" cy="272" rx="184" ry="138" fill="#fff9f7" />

  <g transform="translate(188 130)">
    <path d="M68 0c18 0 34 10 36 24l20 188c2 18-20 32-56 32s-58-14-56-32l20-188C34 10 50 0 68 0z" fill="url(#kulfi)" />
    <ellipse cx="68" cy="26" rx="54" ry="20" fill="#ffe7b9" />
    <ellipse cx="68" cy="52" rx="52" ry="18" fill="#ffd399" opacity="0.85" />
    <ellipse cx="68" cy="80" rx="50" ry="18" fill="#ffb870" opacity="0.7" />
    <ellipse cx="68" cy="110" rx="48" ry="16" fill="#f98746" opacity="0.5" />
    <ellipse cx="68" cy="144" rx="46" ry="16" fill="#f36d3c" opacity="0.45" />
    <ellipse cx="68" cy="180" rx="52" ry="22" fill="#f7a562" opacity="0.5" />
    <ellipse cx="68" cy="214" rx="60" ry="28" fill="#f47f8c" opacity="0.45" />
  </g>

  <g opacity="0.8" fill="url(#falooda)">
    <ellipse cx="200" cy="248" rx="44" ry="26" />
    <ellipse cx="312" cy="248" rx="44" ry="26" />
    <ellipse cx="256" cy="292" rx="60" ry="34" />
  </g>

  <g opacity="0.7" fill="#ffd7a2">
    <circle cx="208" cy="212" r="12" />
    <circle cx="306" cy="212" r="10" />
    <circle cx="256" cy="188" r="9" />
  </g>

  <ellipse cx="256" cy="406" rx="150" ry="32" fill="#f4a6b8" opacity="0.3" />
</svg>
