<svg xmlns="http://www.w3.org/2000/svg" viewBox="0 0 512 512">
  <defs>
    <radialGradient id="bg" cx="48%" cy="40%" r="70%">
      <stop offset="0%" stop-color="#ffe3bf" />
      <stop offset="60%" stop-color="#f3c48f" />
      <stop offset="100%" stop-color="#9d4a1a" />
    </radialGradient>
    <linearGradient id="plate" x1="0%" y1="0%" x2="0%" y2="100%">
      <stop offset="0%" stop-color="#fff8f0" />
      <stop offset="100%" stop-color="#f1e5d9" />
    </linearGradient>
    <radialGradient id="nihari" cx="50%" cy="48%" r="60%">
      <stop offset="0%" stop-color="#ffd4a8" />
      <stop offset="42%" stop-color="#dd7c38" />
      <stop offset="100%" stop-color="#6a1f0b" />
    </radialGradient>
    <linearGradient id="bone" x1="0%" y1="0%" x2="0%" y2="100%">
      <stop offset="0%" stop-color="#f9edde" />
      <stop offset="100%" stop-color="#dbcbb7" />
    </linearGradient>
  </defs>
  <rect width="512" height="512" fill="url(#bg)" />
  <ellipse cx="256" cy="260" rx="212" ry="168" fill="url(#plate)" />
  <ellipse cx="256" cy="270" rx="186" ry="140" fill="#fffaf4" />
  <ellipse cx="256" cy="278" rx="150" ry="108" fill="url(#nihari)" />

  <g opacity="0.55" fill="#5b1a08">
    <ellipse cx="196" cy="230" rx="34" ry="22" />
    <ellipse cx="256" cy="220" rx="48" ry="28" />
    <ellipse cx="326" cy="236" rx="40" ry="26" />
    <ellipse cx="284" cy="286" rx="36" ry="22" />
    <ellipse cx="214" cy="300" rx="32" ry="20" />
  </g>

  <g opacity="0.6" fill="#f8c29e">
    <ellipse cx="238" cy="206" rx="28" ry="16" />
  <ellipse cx="308" cy="224" rx="24" ry="14" />
    <ellipse cx="186" cy="246" rx="22" ry="12" />
    <ellipse cx="270" cy="262" rx="24" ry="14" />
    <ellipse cx="226" cy="292" rx="22" ry="12" />
  </g>

  <path d="M188 188c10-14 36-32 76-36 44-5 104 12 128 32s22 48-10 66c-34 18-84 26-122 22-40-4-78-20-94-40-14-16-14-32 2-44z" fill="none" stroke="#ffe3c7" stroke-width="12" opacity="0.5" />

  <g>
    <path d="M214 172c0-12 12-24 26-26 16-2 34 6 42 24 8 20 0 42-18 48-18 6-50-12-50-46z" fill="url(#bone)" />
    <path d="M296 180c0-14 16-28 34-28s34 12 34 28c0 12-10 22-26 26-18 4-42-10-42-26z" fill="#f4d5b6" opacity="0.7" />
  </g>

  <ellipse cx="256" cy="398" rx="152" ry="32" fill="#b97441" opacity="0.3" />
</svg>
