<svg xmlns="http://www.w3.org/2000/svg" viewBox="0 0 512 512">
  <defs>
    <radialGradient id="bg" cx="50%" cy="40%" r="68%">
      <stop offset="0%" stop-color="#ffe8cf" />
      <stop offset="55%" stop-color="#f2bc88" />
      <stop offset="100%" stop-color="#a14f21" />
    </radialGradient>
    <linearGradient id="plate" x1="0%" y1="0%" x2="0%" y2="100%">
      <stop offset="0%" stop-color="#fff9f2" />
      <stop offset="100%" stop-color="#f2e4d4" />
    </linearGradient>
    <radialGradient id="chaap" cx="50%" cy="46%" r="60%">
      <stop offset="0%" stop-color="#ffcfaa" />
      <stop offset="48%" stop-color="#d76c3c" />
      <stop offset="100%" stop-color="#742810" />
    </radialGradient>
    <linearGradient id="saffron" x1="0%" y1="0%" x2="100%" y2="0%">
      <stop offset="0%" stop-color="#ffdba6" stop-opacity="0.7" />
      <stop offset="100%" stop-color="#f28a3d" stop-opacity="0.1" />
    </linearGradient>
  </defs>
  <rect width="512" height="512" fill="url(#bg)" />
  <ellipse cx="256" cy="260" rx="210" ry="166" fill="url(#plate)" />
  <ellipse cx="256" cy="270" rx="182" ry="136" fill="#fff8f2" />
  <ellipse cx="256" cy="278" rx="148" ry="108" fill="url(#chaap)" />

  <g opacity="0.55" fill="#5a1c0c">
    <ellipse cx="188" cy="230" rx="34" ry="24" />
    <ellipse cx="244" cy="216" rx="46" ry="30" />
    <ellipse cx="318" cy="234" rx="38" ry="28" />
    <ellipse cx="280" cy="288" rx="36" ry="24" />
    <ellipse cx="212" cy="298" rx="30" ry="20" />
  </g>

  <g opacity="0.62" fill="#f7bd99">
    <ellipse cx="230" cy="204" rx="26" ry="16" />
    <ellipse cx="304" cy="220" rx="24" ry="16" />
    <ellipse cx="184" cy="246" rx="22" ry="14" />
    <ellipse cx="266" cy="264" rx="24" ry="16" />
    <ellipse cx="220" cy="292" rx="22" ry="14" />
  </g>

  <path d="M172 202c22-18 74-34 120-34 46 0 102 18 120 38 18 20 4 44-26 60-32 18-80 26-122 24-46-4-86-18-106-36-20-20-20-40 14-52z" fill="none" stroke="#ffe1c8" stroke-width="12" opacity="0.55" />

  <path d="M204 338c18 12 50 18 84 18 34 0 66-6 84-18" fill="none" stroke="url(#saffron)" stroke-width="18" stroke-linecap="round" opacity="0.8" />
  <ellipse cx="256" cy="406" rx="154" ry="34" fill="#b0653b" opacity="0.3" />
</svg>
