<svg xmlns="http://www.w3.org/2000/svg" viewBox="0 0 512 512">
  <defs>
    <radialGradient id="bg" cx="48%" cy="40%" r="68%">
      <stop offset="0%" stop-color="#fff4df" />
      <stop offset="55%" stop-color="#ffd48f" />
      <stop offset="100%" stop-color="#f2a51c" />
    </radialGradient>
    <linearGradient id="plate" x1="0%" y1="0%" x2="0%" y2="100%">
      <stop offset="0%" stop-color="#ffffff" />
      <stop offset="100%" stop-color="#f4ede3" />
    </linearGradient>
    <radialGradient id="dessert" cx="50%" cy="45%" r="60%">
      <stop offset="0%" stop-color="#fff0d9" />
      <stop offset="45%" stop-color="#f6c76c" />
      <stop offset="100%" stop-color="#c67d1f" />
    </radialGradient>
    <linearGradient id="saffron" x1="0%" y1="0%" x2="100%" y2="100%">
      <stop offset="0%" stop-color="#ffedae" stop-opacity="0.8" />
      <stop offset="100%" stop-color="#ffb83d" stop-opacity="0.1" />
    </linearGradient>
  </defs>
  <rect width="512" height="512" fill="url(#bg)" />
  <ellipse cx="256" cy="258" rx="214" ry="166" fill="url(#plate)" />
  <ellipse cx="256" cy="268" rx="184" ry="134" fill="#fff9f2" />
  <ellipse cx="256" cy="276" rx="146" ry="106" fill="url(#dessert)" />

  <g opacity="0.6" fill="#ffefbf">
    <rect x="184" y="216" width="84" height="60" rx="12" ry="12" transform="rotate(-12 226 246)" />
    <rect x="238" y="240" width="90" height="62" rx="12" ry="12" transform="rotate(14 283 271)" />
    <ellipse cx="236" cy="310" rx="46" ry="24" />
    <ellipse cx="308" cy="308" rx="36" ry="20" />
  </g>

  <g opacity="0.5" fill="#a45a17">
    <rect x="192" y="220" width="66" height="44" rx="8" ry="8" transform="rotate(-10 225 242)" />
    <rect x="246" y="244" width="70" height="46" rx="10" ry="10" transform="rotate(12 281 267)" />
    <ellipse cx="236" cy="312" rx="30" ry="14" />
    <ellipse cx="308" cy="306" rx="24" ry="12" />
  </g>

  <g opacity="0.6" fill="#fff7d8">
    <circle cx="206" cy="222" r="10" />
    <circle cx="268" cy="252" r="9" />
    <circle cx="300" cy="240" r="8" />
  </g>

  <path d="M192 340c20 14 56 20 92 20s72-6 92-20" fill="none" stroke="url(#saffron)" stroke-width="16" stroke-linecap="round" opacity="0.7" />
  <ellipse cx="256" cy="402" rx="148" ry="30" fill="#f4bd54" opacity="0.25" />
</svg>
