<svg xmlns="http://www.w3.org/2000/svg" viewBox="0 0 512 512">
  <defs>
    <radialGradient id="bg" cx="50%" cy="40%" r="65%">
      <stop offset="0%" stop-color="#fffdf8" />
      <stop offset="55%" stop-color="#efe5d7" />
      <stop offset="100%" stop-color="#d3c3b0" />
    </radialGradient>
    <linearGradient id="mist" x1="0%" y1="0%" x2="100%" y2="100%">
      <stop offset="0%" stop-color="#ffffff" stop-opacity="0.75" />
      <stop offset="100%" stop-color="#b3a69c" stop-opacity="0.15" />
    </linearGradient>
    <radialGradient id="malai" cx="45%" cy="42%" r="60%">
      <stop offset="0%" stop-color="#fff7ec" />
      <stop offset="48%" stop-color="#f7e1c3" />
      <stop offset="100%" stop-color="#d9a772" />
    </radialGradient>
  </defs>
  <rect width="512" height="512" fill="url(#bg)" />
  <ellipse cx="256" cy="262" rx="210" ry="166" fill="#ffffff" opacity="0.92" />
  <ellipse cx="256" cy="270" rx="182" ry="136" fill="#fffaf2" />
  <ellipse cx="256" cy="276" rx="148" ry="110" fill="url(#malai)" />

  <g opacity="0.35" fill="#7c5c3b">
    <ellipse cx="198" cy="232" rx="32" ry="20" />
    <ellipse cx="274" cy="220" rx="42" ry="26" />
    <ellipse cx="330" cy="250" rx="30" ry="18" />
    <ellipse cx="236" cy="284" rx="34" ry="22" />
    <ellipse cx="298" cy="300" rx="38" ry="24" />
  </g>

  <g opacity="0.6" fill="#fff2e2">
    <ellipse cx="192" cy="228" rx="28" ry="18" />
    <ellipse cx="270" cy="214" rx="35" ry="22" />
    <ellipse cx="324" cy="244" rx="24" ry="15" />
    <ellipse cx="230" cy="278" rx="28" ry="18" />
    <ellipse cx="288" cy="292" rx="30" ry="20" />
  </g>

  <g opacity="0.55" fill="#b57d51">
    <ellipse cx="190" cy="328" rx="28" ry="12" />
    <ellipse cx="260" cy="344" rx="40" ry="16" />
    <ellipse cx="330" cy="328" rx="28" ry="12" />
  </g>

  <path d="M170 208c18-14 48-26 86-28 38-3 80 7 102 20 18 12 28 32 14 46-14 16-52 26-86 28-40 2-80-8-100-20-16-10-24-32-16-46z" fill="none" stroke="#f4e2cc" stroke-width="10" opacity="0.6" />
  <ellipse cx="256" cy="408" rx="160" ry="34" fill="url(#mist)" opacity="0.45" />
</svg>
